<svg xmlns="http://www.w3.org/2000/svg" width="276" height="276" viewBox="0 0 276 276" version="1.1">
	<path d="M 27 21 C 25.122 22.878, 25.001 24.322, 25.015 44.750 C 25.024 56.712, 25.398 67.080, 25.848 67.788 C 26.297 68.497, 28.839 69.854, 31.495 70.804 C 36.184 72.482, 36.392 72.730, 38.600 79.275 C 43.136 92.721, 55.479 110.209, 68.587 121.758 C 74.274 126.770, 89.370 136.939, 103 144.940 C 113.423 151.058, 113.443 151.124, 113.816 179.920 C 113.989 193.351, 113.880 205.344, 113.571 206.571 C 111.923 213.140, 82.035 221.922, 61 222.018 C 52.759 222.056, 46.911 223.401, 45.277 225.636 C 44.373 226.872, 44 231.837, 44 242.619 L 44 257.855 46.635 259.927 C 49.259 261.991, 49.664 262, 145.180 262 L 241.091 262 243.545 259.545 C 245.934 257.157, 246 256.686, 246 242.045 C 246 221.889, 247.344 223.038, 221.952 221.491 C 205.985 220.518, 188.808 216.167, 180.743 211.052 L 176 208.044 176 182.490 C 176 155.721, 176.441 152.501, 180.612 148.845 C 181.650 147.935, 187.622 144.202, 193.883 140.551 C 225.835 121.915, 241.415 104.473, 253.062 74.301 C 253.613 72.873, 255.331 71.719, 257.958 71.011 C 264.908 69.140, 265.154 68.153, 264.806 43.508 C 264.522 23.404, 264.360 21.733, 262.559 20.418 C 260.910 19.213, 243.185 19, 144.809 19 C 30.333 19, 28.977 19.023, 27 21 M 255 29.933 C 255 30.446, 254.100 31.151, 253 31.500 C 251.900 31.849, 251 32.577, 251 33.118 C 251 33.659, 248.075 36.857, 244.500 40.224 C 240.925 43.591, 238 46.651, 238 47.023 C 238 47.729, 255.350 61, 256.273 61 C 256.563 61, 256.854 53.800, 256.918 45 C 256.992 34.746, 256.669 29, 256.017 29 C 255.458 29, 255 29.420, 255 29.933 M 57.629 52.477 C 58.039 53.544, 57.583 54, 56.107 54 C 54.667 54, 54 54.633, 54 56 C 54 57.111, 53.333 58, 52.500 58 C 51.675 58, 51 58.454, 51 59.010 C 51 59.565, 53.250 58.843, 56 57.405 C 61.477 54.541, 62.001 53.606, 59.023 52.012 C 57.409 51.149, 57.153 51.234, 57.629 52.477 M 90.469 67.050 C 89.519 68.588, 90.820 69.580, 92.104 68.296 C 92.822 67.578, 92.839 67.019, 92.156 66.597 C 91.596 66.251, 90.837 66.455, 90.469 67.050 M 93.018 70.974 C 91.111 72.422, 90.216 72.594, 89.159 71.717 C 88.094 70.833, 87.469 71.005, 86.392 72.479 C 84.572 74.968, 84.620 77, 86.500 77 C 87.325 77, 88 77.450, 88 78 C 88 79.415, 84.646 79.243, 83.133 77.750 C 82.117 76.748, 81.581 76.885, 80.433 78.441 C 79.645 79.509, 79 81.216, 79 82.235 C 79 83.254, 78.436 83.958, 77.747 83.800 C 77.058 83.642, 75.076 84.522, 73.343 85.756 C 71.609 86.990, 69.714 88, 69.131 88 C 68.548 88, 67.589 88.900, 67 90 C 66.411 91.100, 65.340 92, 64.620 92 C 63.900 92, 62.004 93.124, 60.406 94.499 C 58.807 95.873, 57.137 96.998, 56.693 96.999 C 54.865 97.002, 59.984 103.618, 67.148 110.511 C 74.272 117.366, 77.158 119.032, 75.035 115.065 C 73.997 113.126, 75.330 110.106, 76.434 111.893 C 77.462 113.556, 78.247 113.281, 81.839 110 C 83.645 108.350, 85.572 107, 86.121 107 C 86.669 107, 86.816 106.511, 86.446 105.913 C 85.962 105.130, 85.470 105.130, 84.687 105.913 C 84.089 106.511, 83.240 107, 82.800 107 C 81.363 107, 81.958 105.042, 84.023 102.977 C 85.495 101.505, 86.516 101.204, 87.773 101.871 C 90.397 103.263, 92.378 100.717, 89.883 99.159 C 87.635 97.755, 87.381 95, 89.500 95 C 90.325 95, 91 94.501, 91 93.892 C 91 93.227, 91.942 93.020, 93.352 93.373 C 96.383 94.134, 97.185 93.273, 95.691 90.862 C 94.732 89.314, 94.793 88.751, 96 87.973 C 96.825 87.442, 98.175 87.058, 99 87.119 C 102.687 87.393, 103.074 87.092, 101.758 84.969 C 100.718 83.291, 100.760 82.772, 102 81.973 C 102.825 81.442, 104.175 81.058, 105 81.119 C 108.597 81.386, 109.439 81.039, 108.200 79.800 C 106.229 77.829, 106.789 76.145, 109.250 76.642 C 110.835 76.962, 110.613 76.680, 108.500 75.687 C 106.850 74.912, 105.158 74.470, 104.741 74.704 C 103.315 75.503, 100 73.868, 100 72.365 C 100 71.341, 99.391 71.059, 98.081 71.474 C 96.829 71.872, 96.048 71.563, 95.831 70.586 C 95.552 69.326, 95.107 69.388, 93.018 70.974 M 74.543 89.931 C 74.226 90.443, 74.425 91.144, 74.984 91.490 C 75.543 91.835, 76 91.416, 76 90.559 C 76 88.802, 75.400 88.544, 74.543 89.931 M 140 117.500 C 140 118.325, 139.497 119, 138.882 119 C 137.567 119, 118 138.335, 118 139.634 C 118 140.121, 117.066 141.102, 115.924 141.815 C 114.264 142.852, 114.086 143.399, 115.038 144.545 C 116.065 145.783, 116.622 145.746, 119.114 144.274 C 120.701 143.336, 122 142.258, 122 141.878 C 122 141.498, 122.900 141.423, 124 141.710 C 125.391 142.074, 126 141.741, 126 140.617 C 126 139.639, 126.833 139, 128.107 139 C 129.435 139, 130.028 138.515, 129.711 137.688 C 129.341 136.724, 130.039 136.499, 132.350 136.838 C 135.196 137.256, 135.362 137.141, 134.104 135.626 C 133.340 134.705, 133.041 133.626, 133.439 133.227 C 133.838 132.829, 134.797 133.370, 135.571 134.428 C 136.906 136.253, 137.012 136.188, 137.615 133.177 C 138.186 130.319, 139.030 129.544, 141.214 129.870 C 141.607 129.928, 141.643 129.233, 141.294 128.324 C 140.941 127.403, 141.075 126.929, 141.599 127.252 C 142.132 127.582, 142.664 125.278, 142.831 121.916 C 143.070 117.095, 142.835 116, 141.562 116 C 140.703 116, 140 116.675, 140 117.500 M 134.636 130.506 C 134.321 131.328, 134.472 132, 134.972 132 C 136.328 132, 137.170 130.223, 136.121 129.575 C 135.620 129.265, 134.952 129.684, 134.636 130.506 M 146.667 158.667 C 146.300 159.033, 146 169.833, 146 182.667 L 146 206 148.250 206.038 C 149.488 206.059, 154.287 206.132, 158.915 206.200 L 167.329 206.323 167.577 182.661 L 167.825 159 164.662 158.829 C 156.936 158.411, 156.502 158.494, 155.955 160.500 C 155.422 162.452, 155.363 162.446, 153.482 160.250 C 151.635 158.093, 148.069 157.265, 146.667 158.667 M 112.364 217.458 C 108.561 220.122, 89.629 225.775, 80.500 226.974 C 68.171 228.593, 67.784 228.728, 69.003 231.006 C 70.182 233.208, 69.001 234.273, 66.340 233.409 C 64.926 232.950, 64.823 233.041, 65.893 233.803 C 66.713 234.387, 67.055 235.681, 66.724 236.947 C 66.306 238.547, 66.589 239.056, 67.831 238.934 C 68.749 238.844, 69.950 238.865, 70.500 238.982 C 76.046 240.158, 118.030 234.737, 121.778 232.361 C 123.031 231.567, 124.443 231.156, 124.915 231.447 C 125.387 231.739, 126.329 231.308, 127.009 230.489 C 128.028 229.261, 127.917 228.997, 126.372 228.985 C 124.941 228.973, 124.819 228.767, 125.857 228.110 C 126.803 227.510, 126.878 227.043, 126.107 226.566 C 125.498 226.190, 124.986 226.246, 124.970 226.691 C 124.953 227.136, 124.481 226.713, 123.920 225.750 C 123.359 224.787, 122.383 224, 121.750 224 C 120.911 224, 120.924 224.324, 121.800 225.200 C 122.460 225.860, 123 227.214, 123 228.208 C 123 229.754, 122.715 229.839, 121.040 228.793 C 119.946 228.110, 119.518 227.298, 120.070 226.956 C 120.707 226.563, 120.592 224.943, 119.747 222.422 C 118.706 219.316, 117.979 218.548, 116.255 218.731 C 114.693 218.897, 114.238 218.544, 114.646 217.481 C 115.356 215.630, 114.979 215.626, 112.364 217.458 M 232.021 237.592 L 227.675 242.152 232.592 247.069 L 237.509 251.986 237.505 243.077 C 237.502 238.178, 237.245 233.913, 236.933 233.601 C 236.621 233.288, 234.411 235.084, 232.021 237.592 " stroke="none" fill-rule="evenodd"/>
</svg>