<svg xmlns="http://www.w3.org/2000/svg" width="276" height="276" viewBox="0 0 276 276" version="1.1">
	<path d="M 138.932 8.828 C 136.479 10.384, 133.803 12.644, 132.986 13.851 C 131.656 15.815, 131.178 15.922, 128.430 14.871 C 126.001 13.943, 124.435 13.990, 120.930 15.099 C 117.264 16.258, 116.155 17.227, 114.500 20.718 C 113.048 23.781, 112.089 24.747, 111 24.245 C 110.175 23.865, 107.272 23.628, 104.548 23.720 C 100.298 23.862, 99.163 24.364, 96.548 27.257 C 94.872 29.111, 92.526 31.422, 91.335 32.392 C 89.281 34.065, 89.033 34.068, 86.539 32.434 C 81.352 29.035, 73 33.769, 73 40.109 C 73 42.155, 72.212 43.146, 69.599 44.386 C 67.728 45.274, 65.533 46, 64.721 46 C 62.665 46, 60.864 48.429, 60.082 52.256 C 59.486 55.172, 59.051 55.511, 55.777 55.605 C 53.408 55.673, 51.034 56.635, 48.990 58.355 C 47.261 59.810, 45.007 61, 43.980 61 C 41.694 61, 39 64.637, 39 67.723 C 39 69.029, 38.391 70, 37.573 70 C 34.427 70, 32 74.999, 32 81.477 L 32 87.683 27.750 88.934 C 22.726 90.412, 17.998 94.537, 18.004 97.437 C 18.008 99.967, 21.495 105.869, 23.423 106.609 C 24.199 106.906, 25.969 108.865, 27.356 110.961 C 29.189 113.732, 30.902 115.015, 33.632 115.660 C 36.692 116.384, 37.535 117.128, 38.198 119.686 C 39.172 123.444, 47.527 130.812, 53.296 133 C 56.365 134.164, 57.502 135.276, 58.375 137.966 C 59.086 140.157, 60.604 141.997, 62.500 142.966 C 64.150 143.810, 65.679 144.924, 65.898 145.443 C 67.183 148.490, 71.173 151, 74.732 151 C 77.318 151, 79.110 151.647, 80.268 153 C 81.210 154.100, 83.099 155, 84.467 155 C 86.114 155, 88.899 156.855, 92.723 160.500 C 97.538 165.091, 99.091 166, 102.111 166 C 104.216 166, 106.794 165.163, 108.273 164 C 109.671 162.900, 112.207 162, 113.908 162 C 116.544 162, 117 162.371, 117 164.515 C 117 167.388, 120.715 174.348, 129.535 188 C 132.911 193.225, 136.196 198.483, 136.836 199.684 C 138.660 203.108, 138.264 208.451, 136.038 210.466 C 134.958 211.443, 133.575 213.759, 132.963 215.613 C 132.101 218.224, 130.121 220.094, 124.175 223.911 C 104.590 236.486, 102.863 238.007, 98.672 246.367 C 95.633 252.429, 95.662 256.731, 98.766 260.250 C 101.618 263.483, 104.802 262.380, 111.343 255.892 C 117.935 249.352, 126.608 244.383, 138.491 240.336 C 144.136 238.414, 146.599 238.082, 151.285 238.612 C 156.294 239.178, 157.283 239.646, 158.518 242.035 C 159.481 243.896, 162.462 246.043, 167.631 248.597 C 176.912 253.183, 180.479 256.058, 182.986 260.973 C 184.905 264.733, 188.774 268, 191.310 268 C 193.866 268, 196 264.455, 196 260.209 C 196 255.379, 192.954 246.685, 189.456 241.531 C 188.105 239.540, 187 237.777, 187 237.612 C 187 237.448, 190.037 237.935, 193.750 238.694 C 200.212 240.016, 221.316 241.860, 234.956 242.294 C 241.053 242.489, 241.498 242.347, 242.956 239.750 C 244.333 237.298, 244.337 236.713, 243 234.349 C 242.175 232.891, 240.825 231.338, 240 230.898 C 235.133 228.302, 218.260 221.339, 211 218.931 C 203.404 216.411, 201.942 215.503, 197.250 210.394 C 192.710 205.449, 191.999 204.124, 191.994 200.588 C 191.985 193.870, 190.080 189.002, 185.548 184.118 C 183.191 181.578, 180.464 177.925, 179.487 176 C 178.510 174.075, 175.976 169.937, 173.855 166.805 C 171.735 163.673, 170 160.446, 170 159.634 C 170 157.517, 175.104 156.682, 183.371 157.448 C 192.444 158.287, 203.049 155.375, 207.194 150.905 C 208.675 149.307, 210.553 148, 211.366 148 C 212.179 148, 214.351 146.240, 216.192 144.088 C 218.527 141.360, 220.670 139.965, 223.274 139.476 C 226.163 138.934, 227.939 137.613, 231.122 133.638 C 233.385 130.812, 235.925 127.073, 236.766 125.328 C 237.608 123.583, 239.136 121.936, 240.161 121.668 C 241.187 121.400, 242.659 119.668, 243.431 117.820 C 245.021 114.014, 247.095 111.952, 251.655 109.644 C 256.969 106.954, 258 105.319, 258 99.584 C 258 95.580, 257.518 93.874, 256 92.500 C 254.830 91.441, 253.994 89.405, 253.985 87.595 C 253.965 83.242, 251.912 79.687, 249.025 79.006 C 247.168 78.568, 246.257 77.358, 245.304 74.064 C 243.462 67.705, 241.390 65.819, 236.620 66.163 C 232.925 66.430, 232.586 66.226, 231.533 63.097 C 230.211 59.170, 226.408 55.752, 224.111 56.426 C 223.089 56.726, 221.768 55.760, 220.500 53.786 C 219.400 52.073, 217.713 50.296, 216.750 49.836 C 215.787 49.376, 214.213 48.626, 213.250 48.169 C 212.287 47.712, 210.433 45.718, 209.128 43.740 C 207.824 41.761, 205.461 39.605, 203.878 38.950 C 202.118 38.220, 201 37.010, 201 35.833 C 201 34.775, 199.895 32.805, 198.545 31.455 C 195.312 28.221, 189.795 28.204, 183.768 31.409 L 179.238 33.817 178.119 31.362 C 177.504 30.011, 177 28.313, 177 27.589 C 177 25.678, 172.132 21.108, 167.673 18.833 C 164.518 17.223, 163.265 17.060, 160.761 17.934 C 156.242 19.509, 155 19.254, 155 16.750 C 155 13.909, 147.871 6, 145.311 6 C 144.255 6, 141.385 7.273, 138.932 8.828 M 139.687 15.805 C 138.209 17.347, 137 19.078, 137 19.650 C 137 21.575, 133.348 24.071, 131.544 23.378 C 129.899 22.747, 129.893 22.893, 131.440 25.884 C 133.620 30.100, 132.666 31.362, 127.874 30.596 C 125.098 30.152, 123.996 30.334, 123.985 31.238 C 123.973 32.204, 123.772 32.188, 123.128 31.173 C 122.466 30.128, 121.435 30.075, 118.285 30.923 C 116.084 31.516, 112.204 31.716, 109.662 31.367 C 105.922 30.855, 104.920 31.045, 104.413 32.367 C 104.068 33.265, 103.370 34, 102.861 34 C 102.352 34, 100.320 34.675, 98.346 35.500 C 95.392 36.734, 94.967 37.256, 95.951 38.441 C 96.608 39.233, 97.805 39.628, 98.610 39.319 C 99.416 39.010, 100.845 39.424, 101.787 40.238 C 103.978 42.131, 107.832 43.081, 108.558 41.906 C 108.866 41.408, 110.061 41, 111.214 41 C 113.192 41, 113.216 41.104, 111.631 42.855 C 110.630 43.962, 110.222 45.415, 110.621 46.454 C 111.183 47.918, 110.986 48.032, 109.395 47.164 C 108.353 46.595, 106.119 45.702, 104.431 45.180 C 100.648 44.009, 96.287 46.391, 90.589 52.742 C 88.495 55.075, 86.429 56.765, 85.998 56.499 C 85.567 56.232, 85.336 53.761, 85.484 51.007 C 85.720 46.630, 85.511 46, 83.820 46 C 82.756 46, 79.811 47.158, 77.277 48.573 C 74.742 49.988, 71.506 51.286, 70.084 51.459 C 68.663 51.631, 67.162 51.823, 66.750 51.886 C 66.338 51.949, 66 52.664, 66 53.475 C 66 54.584, 66.807 54.815, 69.250 54.408 L 72.500 53.866 68.583 57.433 C 64.356 61.283, 64.459 61.848, 68.963 59.519 C 72.469 57.706, 81.601 57.315, 85 58.832 C 86.375 59.446, 89.975 62.258, 93 65.081 C 96.025 67.904, 97.978 69.939, 97.340 69.603 C 95.015 68.381, 93.346 69.997, 93.792 73.038 C 94.210 75.882, 94.432 76, 99.396 76 C 102.238 76, 107.023 76.638, 110.029 77.418 C 113.926 78.428, 115.862 78.530, 116.776 77.771 C 118.026 76.734, 119.308 76.572, 129.357 76.186 C 133.003 76.046, 134.083 75.659, 133.690 74.634 C 133.401 73.882, 134.478 69.360, 136.083 64.585 C 137.687 59.811, 139 54.941, 139 53.764 C 139 52.587, 139.958 50.246, 141.129 48.562 C 143.381 45.322, 155.019 35.594, 159.369 33.314 C 162.615 31.614, 164.065 28.966, 163.317 26.105 C 162.889 24.467, 162.314 24.096, 161.119 24.687 C 160.228 25.127, 156.477 25.498, 152.782 25.512 C 149.087 25.526, 145.626 25.978, 145.092 26.518 C 144.557 27.058, 143.980 29.750, 143.810 32.500 C 143.537 36.905, 143.215 37.540, 141.110 37.838 C 139.010 38.135, 138.812 37.893, 139.476 35.838 C 139.892 34.552, 140.170 31.829, 140.095 29.786 C 140.019 27.744, 140.867 23.484, 141.979 20.321 C 144.946 11.877, 144.428 10.856, 139.687 15.805 M 120.667 21.667 C 119.372 22.961, 120.021 24.206, 121.663 23.576 C 122.727 23.168, 124.343 23.913, 126.152 25.646 C 129.609 28.958, 130.699 28.251, 128.548 24.093 C 127.336 21.750, 126.268 21, 124.141 21 C 122.597 21, 121.033 21.300, 120.667 21.667 M 166.597 26.844 C 166.251 27.404, 166.455 28.163, 167.050 28.531 C 168.588 29.481, 169.580 28.180, 168.296 26.896 C 167.578 26.178, 167.019 26.161, 166.597 26.844 M 148.250 28.265 C 145.824 29.387, 145.165 32, 147.309 32 C 148.029 32, 149.491 31.355, 150.559 30.567 C 153.173 28.638, 151.358 26.827, 148.250 28.265 M 101 32.059 C 101 32.641, 101.450 32.840, 102 32.500 C 102.550 32.160, 103 31.684, 103 31.441 C 103 31.198, 102.550 31, 102 31 C 101.450 31, 101 31.477, 101 32.059 M 116.278 35.820 C 111.895 38.620, 110.973 40, 113.484 40 C 115.182 40, 121.764 34.430, 120.986 33.652 C 120.703 33.370, 118.585 34.345, 116.278 35.820 M 103.200 35.200 C 102.540 35.860, 102.007 36.873, 102.015 37.450 C 102.024 38.027, 102.453 37.831, 102.970 37.014 C 103.756 35.772, 104.440 35.728, 107.139 36.746 C 110.968 38.192, 112.132 37.568, 109.427 35.521 C 107.060 33.730, 104.787 33.613, 103.200 35.200 M 183.150 39.058 C 177.454 42.862, 176.685 43.098, 170.897 42.808 L 164.721 42.500 163.429 46.205 C 162.718 48.242, 160.193 52.715, 157.818 56.144 C 155.443 59.573, 152.112 64.379, 150.414 66.824 C 147.486 71.043, 146.893 75.198, 149.029 76.518 C 150.328 77.321, 153 75.891, 153 74.393 C 153 72.429, 154.309 72.664, 155.690 74.876 C 157.405 77.622, 163.345 78.475, 166.474 76.425 C 167.863 75.515, 169.030 74.034, 169.068 73.135 C 169.117 71.951, 169.433 72.117, 170.216 73.739 C 171.229 75.840, 171.384 75.871, 172.730 74.239 C 173.985 72.716, 174.100 72.705, 173.652 74.149 C 173.267 75.390, 173.927 75.909, 176.320 76.246 C 178.069 76.493, 180.281 77.035, 181.236 77.449 C 182.550 78.020, 183.218 77.556, 183.984 75.541 C 185.311 72.051, 187.313 73.298, 186.479 77.095 C 185.706 80.613, 186.146 80.696, 189.436 77.647 L 191.975 75.294 189.737 74.256 L 187.500 73.217 190.153 72.170 C 193.018 71.040, 194.498 69.396, 193.266 68.713 C 192.845 68.479, 189.350 69.099, 185.500 70.090 C 181.650 71.080, 177.600 71.899, 176.500 71.910 C 174.727 71.926, 174.812 71.673, 177.250 69.676 C 180.451 67.055, 180.902 65.447, 178 67 C 176.482 67.813, 176.004 67.761, 176.015 66.785 C 176.041 64.645, 177.706 62.700, 178.888 63.431 C 179.641 63.896, 180 62.667, 180 59.625 C 180 53.457, 184.407 43.342, 189.094 38.750 C 194.407 33.546, 191.152 33.715, 183.150 39.058 M 80 39.933 C 80 42.191, 83.063 43.432, 86.187 42.441 C 88.247 41.787, 88.270 41.671, 86.590 40.442 C 85.608 39.724, 84.101 39.408, 83.239 39.739 C 82.205 40.135, 81.918 39.942, 82.395 39.170 C 82.829 38.468, 82.495 38, 81.559 38 C 80.685 38, 80 38.849, 80 39.933 M 130.250 39.745 C 127.568 41.080, 125.874 43, 127.378 43 C 128.880 43, 135 39.778, 135 38.987 C 135 37.676, 134.128 37.815, 130.250 39.745 M 138.502 44.997 C 137.610 46.721, 135.411 48.637, 133.323 49.510 C 128.786 51.405, 129.302 52.233, 134.086 50.736 C 138.022 49.504, 144.468 42, 141.591 42 C 140.744 42, 139.354 43.348, 138.502 44.997 M 195.994 46.640 C 194.062 47.436, 191.648 49.527, 190.618 51.293 C 189.038 54.005, 188.650 54.226, 188.102 52.723 C 187.558 51.229, 187.182 51.150, 185.735 52.223 C 184.246 53.328, 184.172 54.008, 185.181 57.269 C 186.224 60.639, 186.112 61.358, 184.128 64.041 C 181.460 67.649, 182.153 69.601, 185.357 67.502 C 186.596 66.690, 189.119 65.861, 190.963 65.659 C 193.945 65.332, 194.524 64.749, 196.185 60.396 C 197.212 57.703, 198.544 54.530, 199.144 53.345 C 199.745 52.160, 199.914 50.669, 199.520 50.032 C 199.126 49.395, 199.593 48.002, 200.557 46.937 C 202.690 44.580, 201.221 44.485, 195.994 46.640 M 174.172 48.034 C 171.521 49.460, 171.216 49.903, 172.672 50.216 C 174.637 50.637, 179 48.341, 179 46.885 C 179 45.702, 178.121 45.911, 174.172 48.034 M 167 48 C 167 48.550, 167.675 49, 168.500 49 C 169.325 49, 170 48.550, 170 48 C 170 47.450, 169.325 47, 168.500 47 C 167.675 47, 167 47.450, 167 48 M 202.176 49.224 C 200.834 50.566, 200.598 53, 201.809 53 C 202.254 53, 203.419 52.414, 204.399 51.697 C 205.916 50.588, 205.970 50.220, 204.767 49.221 C 203.684 48.323, 203.076 48.324, 202.176 49.224 M 112.005 49.750 C 112.012 50.879, 117.961 57, 119.051 57 C 120.800 57, 120.026 55.417, 116.702 52.196 C 113.448 49.042, 111.996 48.285, 112.005 49.750 M 171.250 53.286 C 170.012 53.847, 169 54.912, 169 55.653 C 169 57.354, 169.996 57.318, 172.354 55.532 C 174.890 53.611, 174.096 51.996, 171.250 53.286 M 190.098 55.149 C 188.781 58.927, 188.724 60, 189.839 60 C 190.837 60, 193 55.520, 193 53.453 C 193 50.873, 191.227 51.909, 190.098 55.149 M 131.429 55.429 C 130.370 56.203, 129.728 57.061, 130.003 57.336 C 130.278 57.611, 131.370 57.203, 132.429 56.429 C 133.488 55.654, 134.129 54.796, 133.854 54.521 C 133.579 54.246, 132.488 54.654, 131.429 55.429 M 206.557 57.223 C 205.701 58.445, 205 60.103, 205 60.908 C 205 61.713, 204.022 63.413, 202.826 64.686 C 201.329 66.279, 201.095 66.965, 202.076 66.887 C 202.859 66.825, 205.934 64.125, 208.909 60.887 L 214.317 55 211.215 55 C 209.144 55, 207.596 55.738, 206.557 57.223 M 162.965 58.772 C 160.172 62.323, 162.345 63.109, 165.695 59.760 C 167.756 57.698, 167.913 57.180, 166.624 56.686 C 165.654 56.314, 164.284 57.095, 162.965 58.772 M 121.316 59.449 C 121.868 61.107, 124.358 61.190, 126.503 59.621 C 128.335 58.282, 128.214 58.192, 124.717 58.291 C 122.579 58.352, 121.116 58.850, 121.316 59.449 M 143.954 60.086 C 142.314 63.151, 143.320 63.352, 146.004 60.496 C 147.907 58.470, 148.040 58, 146.709 58 C 145.808 58, 144.568 58.939, 143.954 60.086 M 168.070 62.691 C 168.032 63.896, 168.450 65.160, 169 65.500 C 170.183 66.231, 170.183 65.252, 169 62.500 C 168.171 60.572, 168.138 60.579, 168.070 62.691 M 53.500 63 C 53.160 63.550, 53.359 64, 53.941 64 C 54.523 64, 55 63.550, 55 63 C 55 62.450, 54.802 62, 54.559 62 C 54.316 62, 53.840 62.450, 53.500 63 M 56.015 64.971 C 55.208 66.480, 54.290 66.808, 52.102 66.370 C 50.482 66.046, 48.948 66.276, 48.562 66.899 C 47.574 68.498, 57.073 68.261, 59.215 66.633 C 60.521 65.642, 60.652 65.052, 59.765 64.165 C 58.118 62.518, 57.226 62.709, 56.015 64.971 M 221.971 65.039 C 221.162 65.551, 219.514 65.976, 218.309 65.985 C 217.104 65.993, 215.825 66.474, 215.467 67.053 C 214.092 69.278, 213.994 75.610, 215.307 77.406 C 216.566 79.127, 216.812 78.992, 219.024 75.375 C 221.286 71.674, 224.170 64.836, 223.676 64.343 C 223.547 64.214, 222.780 64.527, 221.971 65.039 M 127 67.500 C 126.315 68.325, 125.109 69, 124.319 69 C 123.528 69, 123.160 69.450, 123.500 70 C 124.497 71.614, 125.660 71.168, 127.408 68.500 C 129.211 65.749, 128.961 65.137, 127 67.500 M 78.813 67.683 C 79.534 67.972, 80.397 67.936, 80.729 67.604 C 81.061 67.272, 80.471 67.036, 79.417 67.079 C 78.252 67.127, 78.015 67.364, 78.813 67.683 M 151.543 67.931 C 151.226 68.443, 151.378 69.115, 151.879 69.425 C 152.380 69.735, 153.048 69.316, 153.364 68.494 C 153.986 66.874, 152.483 66.409, 151.543 67.931 M 118.500 69 C 118.160 69.550, 118.359 70, 118.941 70 C 119.523 70, 120 69.550, 120 69 C 120 68.450, 119.802 68, 119.559 68 C 119.316 68, 118.840 68.450, 118.500 69 M 217.469 69.050 C 216.519 70.588, 217.820 71.580, 219.104 70.296 C 219.822 69.578, 219.839 69.019, 219.156 68.597 C 218.596 68.251, 217.837 68.455, 217.469 69.050 M 142.755 73.500 C 142.492 74.875, 142.665 76, 143.139 76 C 143.612 76, 144 74.875, 144 73.500 C 144 72.125, 143.827 71, 143.617 71 C 143.406 71, 143.018 72.125, 142.755 73.500 M 235 73 C 234.175 73.533, 232.262 73.976, 230.750 73.985 C 227.635 74.002, 227.261 75.501, 229.557 78.777 C 231.268 81.220, 232.990 81.704, 233.017 79.750 C 233.027 79.063, 234.152 77.440, 235.517 76.145 C 239.057 72.788, 238.699 70.610, 235 73 M 209 75.500 C 207.863 76.870, 208.294 77.427, 210.250 77.118 C 211.338 76.947, 211.169 78.431, 209.963 79.637 C 208.787 80.813, 210.328 86, 211.854 86 C 212.351 86, 213.302 84.686, 213.967 83.079 C 215.031 80.511, 214.902 79.787, 212.900 77.079 C 210.237 73.477, 210.568 73.611, 209 75.500 M 43.837 78.250 C 41.935 79.789, 39 84.114, 39 85.377 C 39 85.890, 39.925 85.473, 41.056 84.449 C 42.755 82.911, 43.449 82.799, 45.056 83.803 C 46.659 84.804, 47 84.752, 47 83.508 C 47 82.679, 46.460 82, 45.800 82 C 44.867 82, 44.867 81.733, 45.800 80.800 C 47.161 79.439, 47.412 77, 46.191 77 C 45.746 77, 44.687 77.563, 43.837 78.250 M 38.500 79 C 38.160 79.550, 38.584 80, 39.441 80 C 40.298 80, 41 79.550, 41 79 C 41 78.450, 40.577 78, 40.059 78 C 39.541 78, 38.840 78.450, 38.500 79 M 64.400 79.428 C 61.386 80.740, 60 82.678, 60 85.582 C 60 86.576, 61.228 87, 64.107 87 C 67.361 87, 68.088 86.688, 67.607 85.500 C 67.273 84.675, 66.699 83.251, 66.330 82.336 C 65.877 81.210, 66.039 80.906, 66.830 81.395 C 67.579 81.858, 68 81.376, 68 80.059 C 68 78.927, 67.888 78.018, 67.750 78.039 C 67.612 78.061, 66.105 78.686, 64.400 79.428 M 81.193 85.750 C 80.102 87.925, 80.899 102, 82.113 102 C 82.601 102, 83 97.950, 83 93 C 83 88.050, 82.791 84, 82.535 84 C 82.280 84, 81.675 84.787, 81.193 85.750 M 94.195 86.500 C 94.215 88.150, 94.439 88.704, 94.693 87.731 C 94.947 86.758, 94.930 85.408, 94.656 84.731 C 94.382 84.054, 94.175 84.850, 94.195 86.500 M 237.894 85.629 C 237.246 86.409, 237.792 86.918, 239.659 87.275 C 242.294 87.779, 247 86.335, 247 85.023 C 247 83.898, 238.884 84.439, 237.894 85.629 M 132.190 86.883 C 130.628 87.848, 131.713 91, 133.607 91 C 135.124 91, 135.416 89.202, 134.208 87.303 C 133.784 86.635, 132.891 86.449, 132.190 86.883 M 42 89.799 C 40.625 90.015, 38.994 90.607, 38.376 91.114 C 37.757 91.621, 34.858 92.850, 31.934 93.844 C 26.270 95.769, 24.264 97.990, 28.167 98.015 C 29.450 98.023, 32.283 98.651, 34.463 99.409 C 36.936 100.270, 39.245 100.477, 40.606 99.960 C 41.804 99.504, 43.734 99.379, 44.893 99.682 C 46.805 100.182, 47 99.817, 47 95.739 C 47 90.738, 45.718 89.216, 42 89.799 M 137.442 91.329 C 137.748 91.973, 138.276 93.287, 138.616 94.250 C 139.512 96.790, 141 96.395, 141 93.617 C 141 92.052, 140.293 91.048, 138.943 90.695 C 137.587 90.341, 137.075 90.557, 137.442 91.329 M 238.710 93 C 238.423 94.100, 238.425 95.909, 238.716 97.021 C 239.550 100.213, 241.739 97.584, 241.216 94.019 C 240.709 90.563, 239.478 90.063, 238.710 93 M 246.500 98 C 246.840 98.550, 247.766 99, 248.559 99 C 249.352 99, 250 98.550, 250 98 C 250 97.450, 249.073 97, 247.941 97 C 246.809 97, 246.160 97.450, 246.500 98 M 54.750 119.689 C 53.788 119.941, 53 120.564, 53 121.073 C 53 122.501, 56.392 122.171, 58.559 120.532 C 60.474 119.084, 60.473 119.065, 58.500 119.148 C 57.400 119.194, 55.712 119.438, 54.750 119.689 M 64.345 133.543 C 63.414 135.970, 64.505 136.205, 66.494 134.006 C 68.151 132.175, 68.163 132, 66.624 132 C 65.696 132, 64.671 132.694, 64.345 133.543 M 138 141.059 C 138 141.641, 138.450 141.840, 139 141.500 C 139.550 141.160, 140 140.684, 140 140.441 C 140 140.198, 139.550 140, 139 140 C 138.450 140, 138 140.477, 138 141.059 M 72.500 143 C 72.160 143.550, 72.584 144, 73.441 144 C 74.298 144, 75 143.550, 75 143 C 75 142.450, 74.577 142, 74.059 142 C 73.541 142, 72.840 142.450, 72.500 143 M 140.667 146.667 C 140.300 147.033, 140 147.798, 140 148.367 C 140 148.993, 140.466 148.934, 141.183 148.217 C 141.834 147.566, 142.134 146.801, 141.850 146.517 C 141.566 146.232, 141.033 146.300, 140.667 146.667 M 136 151.577 C 136 151.894, 137.350 153.504, 139 155.154 C 140.815 156.969, 142 157.600, 142 156.751 C 142 155.980, 140.958 154.370, 139.686 153.174 C 137.417 151.044, 136 150.429, 136 151.577 M 130.029 153.961 C 129.220 154.473, 128.893 155.226, 129.303 155.636 C 129.712 156.046, 130.808 155.620, 131.738 154.690 C 133.545 152.883, 132.464 152.421, 130.029 153.961 M 123 158 C 123 158.550, 123.900 159, 125 159 C 126.100 159, 127 158.550, 127 158 C 127 157.450, 126.100 157, 125 157 C 123.900 157, 123 157.450, 123 158 M 134.500 160 C 134.160 160.550, 134.359 161, 134.941 161 C 135.523 161, 136 160.550, 136 160 C 136 159.450, 135.802 159, 135.559 159 C 135.316 159, 134.840 159.450, 134.500 160 M 131.658 164.676 C 131.286 165.047, 132.673 165.941, 134.741 166.661 C 140.200 168.562, 141.016 168.292, 136.739 166 C 132.525 163.741, 132.578 163.755, 131.658 164.676 M 125 166 C 123.707 166.835, 123.734 166.971, 125.191 166.985 C 126.121 166.993, 127.160 166.550, 127.500 166 C 128.282 164.734, 126.958 164.734, 125 166 M 161.500 169 C 160.505 170.100, 160.140 171, 160.690 171 C 161.240 171, 162.505 170.100, 163.500 169 C 164.495 167.900, 164.860 167, 164.310 167 C 163.760 167, 162.495 167.900, 161.500 169 M 152.892 179.942 C 151.576 181.037, 150.976 181.948, 151.559 181.967 C 153.109 182.015, 156.600 179.267, 155.890 178.557 C 155.556 178.223, 154.207 178.846, 152.892 179.942 M 137.500 179.713 C 136.400 179.978, 135.050 180.632, 134.500 181.168 C 133.237 182.397, 139.084 181.123, 140.450 179.871 C 141.473 178.933, 140.875 178.901, 137.500 179.713 M 175.982 191.035 C 174.850 193.255, 173.517 194.819, 173.020 194.512 C 171.993 193.878, 166 199.387, 166 200.966 C 166 202.685, 167.522 202.138, 169.958 199.544 C 171.227 198.194, 172.724 197.181, 173.284 197.294 C 174.662 197.572, 179 191.164, 179 188.852 C 179 186.050, 178.248 186.594, 175.982 191.035 M 141.750 190.689 C 139.033 191.399, 139.689 192.782, 142.488 192.247 C 143.857 191.985, 144.730 191.373, 144.429 190.886 C 144.128 190.399, 143.796 190.052, 143.691 190.116 C 143.586 190.180, 142.713 190.438, 141.750 190.689 M 153 190.969 C 153 191.501, 153.675 191.678, 154.500 191.362 C 155.325 191.045, 156 190.609, 156 190.393 C 156 190.177, 155.325 190, 154.500 190 C 153.675 190, 153 190.436, 153 190.969 M 147.500 197 C 147.160 197.550, 147.332 198, 147.882 198 C 148.432 198, 149.160 197.550, 149.500 197 C 149.840 196.450, 149.668 196, 149.118 196 C 148.568 196, 147.840 196.450, 147.500 197 M 147.750 204.131 C 145.455 206.006, 144 208.059, 144 209.423 C 144 210.648, 142.875 212.708, 141.500 214 C 139.082 216.271, 138.209 219.391, 139.750 220.253 C 140.162 220.483, 139.985 220.553, 139.356 220.408 C 138.728 220.263, 137.153 221.301, 135.856 222.714 C 134.560 224.128, 130.350 227.387, 126.500 229.957 C 119.938 234.338, 117.529 237, 120.126 237 C 121.668 237, 139.724 227.287, 143.811 224.258 C 145.632 222.909, 148.782 221.312, 150.811 220.710 L 154.500 219.614 151 218.978 C 147.011 218.253, 148.239 217.485, 154.875 216.552 C 159.884 215.847, 163 214.422, 163 212.836 C 163 211.454, 149.088 212.682, 147.226 214.228 C 145.188 215.919, 144.715 214.429, 146.087 210.636 C 146.941 208.275, 148.529 206.528, 150.929 205.311 C 152.893 204.315, 154.712 203.363, 154.971 203.196 C 155.460 202.880, 152.881 201.017, 152 201.049 C 151.725 201.059, 149.813 202.446, 147.750 204.131 M 160.750 203.662 C 161.438 203.940, 162.563 203.940, 163.250 203.662 C 163.938 203.385, 163.375 203.158, 162 203.158 C 160.625 203.158, 160.063 203.385, 160.750 203.662 M 154.945 205.566 C 154.230 206.427, 152.334 207.810, 150.730 208.640 C 146.580 210.786, 147.912 211.295, 152.989 209.504 C 156.229 208.361, 158.180 208.229, 160.895 208.969 L 164.500 209.952 161.114 206.976 C 157.217 203.550, 156.714 203.435, 154.945 205.566 M 186.609 213.473 C 185.724 214.824, 185 216.233, 185 216.605 C 185 216.976, 184.213 217.877, 183.250 218.608 C 181.753 219.744, 181.728 219.941, 183.072 219.968 C 184.858 220.004, 190.300 212.304, 189.040 211.525 C 188.588 211.246, 187.495 212.122, 186.609 213.473 M 198.505 226.312 C 198.680 228.691, 202.300 230.048, 206.386 229.267 C 209.794 228.615, 209.725 227.197, 206.250 226.436 C 204.738 226.105, 202.341 225.473, 200.925 225.031 C 198.704 224.337, 198.372 224.512, 198.505 226.312 M 209.570 229.886 C 208.922 230.936, 219.496 232.429, 220.999 231.501 C 221.567 231.149, 221.744 230.395, 221.391 229.824 C 220.976 229.152, 220.461 229.254, 219.930 230.114 C 219.265 231.189, 218.468 231.209, 215.734 230.221 C 211.722 228.770, 210.308 228.693, 209.570 229.886 M 226.550 232.888 C 227.072 233.376, 228.625 234.070, 230 234.429 L 232.500 235.083 230 233.577 C 227.214 231.898, 225.023 231.460, 226.550 232.888 M 175.500 241 C 175.160 241.550, 175.359 242, 175.941 242 C 176.523 242, 177 241.550, 177 241 C 177 240.450, 176.802 240, 176.559 240 C 176.316 240, 175.840 240.450, 175.500 241 M 113.500 243 C 113.160 243.550, 113.332 244, 113.882 244 C 114.432 244, 115.160 243.550, 115.500 243 C 115.840 242.450, 115.668 242, 115.118 242 C 114.568 242, 113.840 242.450, 113.500 243 M 104.954 248.086 C 103.346 251.091, 104.168 251.239, 106.870 248.431 C 108.681 246.549, 108.855 246, 107.640 246 C 106.777 246, 105.568 246.939, 104.954 248.086 " stroke="none" fill-rule="evenodd"/>
</svg>