<svg xmlns="http://www.w3.org/2000/svg" width="276" height="276" viewBox="0 0 276 276" version="1.1">
	<path d="M 115.614 11.293 C 114.387 12.190, 113.747 14.253, 113.522 18.043 L 113.197 23.500 90.849 24.045 L 68.500 24.590 58.359 30.825 C 51.738 34.896, 48.011 37.831, 47.622 39.280 C 46.610 43.058, 46.923 106.988, 47.964 108.933 C 48.494 109.923, 53.107 113.156, 58.214 116.117 L 67.500 121.500 90.250 121.802 L 113 122.105 113 193.830 C 113 257.128, 113.183 265.816, 114.557 267.777 C 116.091 269.969, 116.450 270, 139.985 270 C 160.354 270, 164.088 269.769, 165.429 268.429 C 166.828 267.029, 167 258.944, 167 194.480 L 167 122.103 190.250 121.801 L 213.500 121.500 222.748 116.187 C 227.835 113.265, 232.448 110.032, 232.998 109.003 C 233.611 107.859, 234 93.957, 234 73.240 C 234 34.032, 235.422 38.883, 221.404 30.266 L 213.309 25.290 198.404 24.668 C 190.207 24.325, 179.787 24.035, 175.250 24.023 L 167 24 167 18.557 C 167 10.038, 166.879 10, 139.969 10 C 123.081 10, 116.936 10.326, 115.614 11.293 M 122.675 19.922 L 126.500 23.843 139.500 24.501 L 152.500 25.159 156.958 20.579 L 161.416 16 140.133 16 L 118.850 16 122.675 19.922 M 118.818 26.189 L 118.500 29.500 93.500 30 L 68.500 30.500 60.750 35.395 L 53 40.290 53 73.145 C 53 91.215, 53.372 106, 53.826 106 C 54.280 106, 55.708 104.875, 57 103.500 C 58.292 102.125, 59.958 101, 60.703 101 C 61.812 101, 62.042 95.992, 61.968 73.380 L 61.878 45.760 67.489 42.380 L 73.100 39 95.985 39 C 109.385 39, 120.002 38.570, 121.601 37.962 C 127.796 35.606, 130.214 28.792, 125.493 26.997 C 124.114 26.473, 123.101 25.482, 123.243 24.796 C 123.384 24.109, 122.518 23.397, 121.318 23.213 C 119.495 22.934, 119.083 23.424, 118.818 26.189 M 160.557 32.223 C 158.111 35.715, 158.609 37.672, 162.125 38.375 C 163.844 38.719, 175.063 39, 187.058 39 C 211.035 39, 208.909 39.569, 210.426 32.750 L 211.038 30 186.576 30 C 162.431 30, 162.093 30.029, 160.557 32.223 M 119 193.208 L 119 265.416 123.500 261 L 128 256.584 128 188.792 L 128 121 123.500 121 L 119 121 119 193.208 " stroke="none" fill-rule="evenodd"/>
</svg>